<svg width="1647" height="986" xmlns="http://www.w3.org/2000/svg" xmlns:xlink="http://www.w3.org/1999/xlink"
     xml:space="preserve" overflow="hidden"><defs><clipPath id="clip0"><rect x="1182" y="696" width="1647" height="986"/></clipPath><clipPath
        id="clip1"><rect x="1181" y="695" width="1648" height="986"/></clipPath><clipPath id="clip2"><rect x="1181" y="695" width="1648" height="986"/></clipPath><clipPath
        id="clip3"><rect x="1181" y="695" width="1648" height="986"/></clipPath><clipPath id="clip4"><rect x="1312" y="865" width="1470" height="713"/></clipPath><clipPath
        id="clip5"><rect x="1181" y="695" width="1648" height="986"/></clipPath><clipPath id="clip6"><rect x="1181" y="695" width="1648" height="986"/></clipPath><clipPath
        id="clip7"><rect x="1181" y="695" width="1648" height="986"/></clipPath><clipPath id="clip8"><rect x="1181" y="695" width="1648" height="986"/></clipPath><clipPath
        id="clip9"><rect x="1181" y="695" width="1648" height="986"/></clipPath><clipPath id="clip10"><rect x="1181" y="695" width="1648" height="986"/></clipPath><clipPath
        id="clip11"><rect x="1181" y="695" width="1648" height="986"/></clipPath><clipPath id="clip12"><rect x="1181" y="695" width="1648" height="986"/></clipPath><clipPath
        id="clip13"><rect x="1181" y="695" width="1648" height="986"/></clipPath><clipPath id="clip14"><rect x="1181" y="695" width="1648" height="986"/></clipPath><clipPath
        id="clip15"><rect x="1181" y="695" width="1648" height="986"/></clipPath><clipPath id="clip16"><rect x="1181" y="695" width="1648" height="986"/></clipPath><clipPath
        id="clip17"><rect x="1181" y="695" width="1648" height="986"/></clipPath><clipPath id="clip18"><rect x="1181" y="695" width="1648" height="986"/></clipPath><clipPath
        id="clip19"><rect x="1181" y="695" width="1648" height="986"/></clipPath><clipPath id="clip20"><rect x="1181" y="695" width="1648" height="986"/></clipPath></defs>
  <g clip-path="url(#clip0)" transform="translate(-1182 -696)"><rect x="1182" y="696" width="1647" height="986" fill="#FFFFFF"/>
    <g clip-path="url(#clip1)"><rect x="1312" y="866" width="1467" height="709" fill="#FFFFFF"/></g>
    <g clip-path="url(#clip2)"><path d="M1312.5 1473.55 2779.5 1473.55M1312.5 1372.55 2779.5 1372.55M1312.5 1271.54 2779.5 1271.54M1312.5 1169.54 2779.5 1169.54M1312.5 1068.54 2779.5 1068.54M1312.5 967.532 2779.5 967.532M1312.5 865.5 2779.5 865.5" stroke="#D9D9D9" stroke-width="3.4375" stroke-linejoin="round" stroke-miterlimit="10" fill="none"/></g>
    <g clip-path="url(#clip3)"><path d="M1312.5 1575.5 2779.5 1575.5" stroke="#D9D9D9" stroke-width="3.4375" stroke-linejoin="round" stroke-miterlimit="10" fill="none" fill-rule="evenodd"/></g>
    <g clip-path="url(#clip4)"><path d="M1375.5 967.532 1459.55 967.532 1459.55 1453.55 1375.5 1453.55ZM1584.55 987.533 1668.55 987.533 1668.55 1463.55 1584.55 1463.55ZM1794.56 926.5 1878.56 926.5 1878.56 1423.55 1794.56 1423.55ZM2003.57 1028.53 2087.57 1028.53 2087.57 1443.55 2003.57 1443.55ZM2213.57 1017.53 2297.58 1017.53 2297.58 1514.5 2213.57 1514.5ZM2422.58 987.533 2506.58 987.533 2506.58 1504.55 2422.58 1504.55ZM2632.59 997.533 2716.5 997.533 2716.5 1423.55 2632.59 1423.55Z" stroke="#595959" stroke-width="3.4375" stroke-linejoin="round" stroke-miterlimit="10" fill="#2196F3"/></g>
    <g clip-path="url(#clip5)"><text fill="#595959" font-family="Calibri,Calibri_MSFontService,sans-serif" font-weight="400" font-size="41" transform="matrix(1 0 0 1 1232.43 1587)">70</text></g>
    <g clip-path="url(#clip6)"><text fill="#595959" font-family="Calibri,Calibri_MSFontService,sans-serif" font-weight="400" font-size="41" transform="matrix(1 0 0 1 1232.43 1486)">80</text></g>
    <g clip-path="url(#clip7)"><text fill="#595959" font-family="Calibri,Calibri_MSFontService,sans-serif" font-weight="400" font-size="41" transform="matrix(1 0 0 1 1232.43 1384)">90</text></g>
    <g clip-path="url(#clip8)"><text fill="#595959" font-family="Calibri,Calibri_MSFontService,sans-serif" font-weight="400" font-size="41" transform="matrix(1 0 0 1 1211.53 1283)">100</text></g>
    <g clip-path="url(#clip9)"><text fill="#595959" font-family="Calibri,Calibri_MSFontService,sans-serif" font-weight="400" font-size="41" transform="matrix(1 0 0 1 1211.53 1182)">110</text></g>
    <g clip-path="url(#clip10)"><text fill="#595959" font-family="Calibri,Calibri_MSFontService,sans-serif" font-weight="400" font-size="41" transform="matrix(1 0 0 1 1211.53 1080)">120</text></g>
    <g clip-path="url(#clip11)"><text fill="#595959" font-family="Calibri,Calibri_MSFontService,sans-serif" font-weight="400" font-size="41" transform="matrix(1 0 0 1 1211.53 979)">130</text></g>
    <g clip-path="url(#clip12)"><text fill="#595959" font-family="Calibri,Calibri_MSFontService,sans-serif" font-weight="400" font-size="41" transform="matrix(1 0 0 1 1211.53 877)">140</text></g>
    <g clip-path="url(#clip13)"><text fill="#595959" font-family="Calibri,Calibri_MSFontService,sans-serif" font-weight="400" font-size="41" transform="matrix(1 0 0 1 1347.84 1641)">Monday</text></g>
    <g clip-path="url(#clip14)"><text fill="#595959" font-family="Calibri,Calibri_MSFontService,sans-serif" font-weight="400" font-size="41" transform="matrix(1 0 0 1 1557.48 1641)">Tuesday</text></g>
    <g clip-path="url(#clip15)"><text fill="#595959" font-family="Calibri,Calibri_MSFontService,sans-serif" font-weight="400" font-size="41" transform="matrix(1 0 0 1 1737.58 1641)">Wednesday</text></g>
    <g clip-path="url(#clip16)"><text fill="#595959" font-family="Calibri,Calibri_MSFontService,sans-serif" font-weight="400" font-size="41" transform="matrix(1 0 0 1 1968.72 1641)">Thursday</text></g>
    <g clip-path="url(#clip17)"><text fill="#595959" font-family="Calibri,Calibri_MSFontService,sans-serif" font-weight="400" font-size="41" transform="matrix(1 0 0 1 2203.81 1641)">Friday</text></g>
    <g clip-path="url(#clip18)"><text fill="#595959" font-family="Calibri,Calibri_MSFontService,sans-serif" font-weight="400" font-size="41" transform="matrix(1 0 0 1 2390.43 1641)">Saturday</text></g>
    <g clip-path="url(#clip19)"><text fill="#595959" font-family="Calibri,Calibri_MSFontService,sans-serif" font-weight="400" font-size="41" transform="matrix(1 0 0 1 2613.08 1641)">Sunday</text></g>
    <g clip-path="url(#clip20)"><text fill="#595959" font-family="Calibri,Calibri_MSFontService,sans-serif" font-weight="400" font-size="64" transform="matrix(1 0 0 1 1810.57 791)">Blood pressure</text></g></g></svg>
